/* XPM */
static char * close_active_xpm[] = {
"45 25 22 1",
" 	c None",
".	c #FF1919",
"+	c #FF6767",
"@	c #FF1717",
"#	c #FF7070",
"$	c #FFFFFF",
"%	c #FFD6D6",
"&	c #FFC9C9",
"*	c #FF7D7D",
"=	c #FFD9D9",
"-	c #FF3636",
";	c #FFE4E4",
">	c #FF3737",
",	c #FFF5F5",
"'	c #FFF6F6",
")	c #FFFAFA",
"!	c #FF4747",
"~	c #FF7272",
"{	c #FF8888",
"]	c #FF8080",
"^	c #FF8B8B",
"/	c #202020",
".............................................",
".............................................",
".............................................",
".............................................",
"..................+@....#....................",
".................+$%@..&$*...................",
".................@=$%-&$;>...................",
"..................@=$,$;>....................",
"...................-'$)!.....................",
"...................&$)$%@....................",
"..................&$;!=$%@...................",
".................~$;>.@=${...................",
"..................]>...@^....................",
".............................................",
".............................................",
".............................................",
".............................................",
"/////////////////////////////////////////////",
"/////////////////////////////////////////////",
"/////////////////////////////////////////////",
"/////////////////////////////////////////////",
"/////////////////////////////////////////////",
"/////////////////////////////////////////////",
"/////////////////////////////////////////////",
"/////////////////////////////////////////////"};
