/* XPM */
static char * close_prelight_xpm[] = {
"45 25 3 1",
" 	c None",
".	c #FF0000",
"+	c #202020",
".............................................",
".............................................",
".............................................",
".............................................",
".............................................",
".............................................",
".............................................",
".............................................",
".............................................",
".............................................",
".............................................",
".............................................",
".............................................",
".............................................",
".............................................",
".............................................",
".............................................",
"+++++++++++++++++++++++++++++++++++++++++++++",
"+++++++++++++++++++++++++++++++++++++++++++++",
"+++++++++++++++++++++++++++++++++++++++++++++",
"+++++++++++++++++++++++++++++++++++++++++++++",
"+++++++++++++++++++++++++++++++++++++++++++++",
"+++++++++++++++++++++++++++++++++++++++++++++",
"+++++++++++++++++++++++++++++++++++++++++++++",
"+++++++++++++++++++++++++++++++++++++++++++++"};
